<svg xmlns="http://www.w3.org/2000/svg" xmlns:xlink="http://www.w3.org/1999/xlink" width="50" zoomAndPan="magnify" viewBox="0 0 37.5 37.499999" height="50" preserveAspectRatio="xMidYMid meet" version="1.0"><defs><clipPath id="c65407b587"><path d="M 1.851562 1.042969 L 18 1.042969 L 18 35.828125 L 1.851562 35.828125 Z M 1.851562 1.042969 " clip-rule="nonzero"/></clipPath><clipPath id="6159f16640"><path d="M 19 1.042969 L 35.15625 1.042969 L 35.15625 35.828125 L 19 35.828125 Z M 19 1.042969 " clip-rule="nonzero"/></clipPath><clipPath id="3db8b6c8b8"><path d="M 1.851562 1.042969 L 18 1.042969 L 18 35.828125 L 1.851562 35.828125 Z M 1.851562 1.042969 " clip-rule="nonzero"/></clipPath><clipPath id="209415e289"><path d="M 19 1.042969 L 35.15625 1.042969 L 35.15625 35.828125 L 19 35.828125 Z M 19 1.042969 " clip-rule="nonzero"/></clipPath></defs><g clip-path="url(#c65407b587)"><path fill="#4b50cb" d="M 17.15625 1.050781 L 17.15625 35.945312 C 15.714844 35.847656 14.324219 35.574219 13 35.148438 C 7.789062 33.46875 3.648438 29.414062 1.851562 24.261719 L 6 22.90625 C 7.203125 26.28125 9.75 29.023438 13 30.480469 L 13 6.515625 C 11.820312 7.046875 10.734375 7.742188 9.773438 8.578125 L 6.921875 5.273438 C 8.675781 3.753906 10.738281 2.578125 13 1.847656 C 14.324219 1.421875 15.714844 1.148438 17.15625 1.050781 Z M 17.15625 1.050781 " fill-opacity="1" fill-rule="nonzero"/></g><g clip-path="url(#6159f16640)"><path fill="#4b50cb" d="M 32.125 20.578125 L 35.15625 23.421875 C 34.734375 24.855469 34.136719 26.210938 33.386719 27.46875 C 32.527344 28.902344 31.46875 30.207031 30.246094 31.335938 L 27.261719 28.152344 C 28.421875 27.082031 29.390625 25.808594 30.105469 24.382812 L 26.875 21.351562 L 26.050781 20.578125 L 23.96875 20.578125 L 23.96875 35.070312 C 22.648438 35.519531 21.253906 35.8125 19.808594 35.929688 L 19.808594 1.066406 C 21.253906 1.183594 22.648438 1.476562 23.96875 1.925781 L 23.96875 16.417969 L 26.050781 16.417969 L 26.875 15.644531 L 30.105469 12.609375 C 29.390625 11.1875 28.421875 9.914062 27.261719 8.84375 L 30.246094 5.660156 C 31.46875 6.789062 32.527344 8.09375 33.386719 9.527344 C 34.136719 10.785156 34.734375 12.140625 35.15625 13.574219 L 32.125 16.417969 L 31.421875 17.082031 L 29.910156 18.496094 L 31.421875 19.914062 Z M 32.125 20.578125 " fill-opacity="1" fill-rule="nonzero"/></g><g clip-path="url(#3db8b6c8b8)"><path fill="#4b50cb" d="M 17.15625 1.050781 L 17.15625 35.945312 C 15.714844 35.847656 14.324219 35.574219 13 35.148438 C 7.789062 33.46875 3.648438 29.414062 1.851562 24.261719 L 6 22.90625 C 7.203125 26.28125 9.75 29.023438 13 30.480469 L 13 6.515625 C 11.820312 7.046875 10.734375 7.742188 9.773438 8.578125 L 6.921875 5.273438 C 8.675781 3.753906 10.738281 2.578125 13 1.847656 C 14.324219 1.421875 15.714844 1.148438 17.15625 1.050781 Z M 17.15625 1.050781 " fill-opacity="1" fill-rule="nonzero"/></g><g clip-path="url(#209415e289)"><path fill="#4b50cb" d="M 32.125 20.578125 L 35.15625 23.421875 C 34.734375 24.855469 34.136719 26.210938 33.386719 27.46875 C 32.527344 28.902344 31.46875 30.207031 30.246094 31.335938 L 27.261719 28.152344 C 28.421875 27.082031 29.390625 25.808594 30.105469 24.382812 L 26.875 21.351562 L 26.050781 20.578125 L 23.96875 20.578125 L 23.96875 35.070312 C 22.648438 35.519531 21.253906 35.8125 19.808594 35.929688 L 19.808594 1.066406 C 21.253906 1.183594 22.648438 1.476562 23.96875 1.925781 L 23.96875 16.417969 L 26.050781 16.417969 L 26.875 15.644531 L 30.105469 12.609375 C 29.390625 11.1875 28.421875 9.914062 27.261719 8.84375 L 30.246094 5.660156 C 31.46875 6.789062 32.527344 8.09375 33.386719 9.527344 C 34.136719 10.785156 34.734375 12.140625 35.15625 13.574219 L 32.125 16.417969 L 31.421875 17.082031 L 29.910156 18.496094 L 31.421875 19.914062 Z M 32.125 20.578125 " fill-opacity="1" fill-rule="nonzero"/></g></svg>