<svg xmlns="http://www.w3.org/2000/svg" width="242" height="122" fill="none" viewBox="0 0 242 122"><path fill="#014F8F" d="M10.408 20.78C4.932 20.78.5 16.685.5 11.21V.548h70.727c5.467 0 9.9 4.432 9.9 9.899V20.84l-70.72-.07v.01Zm40.69 20.04v81.157H40.445c-5.458 0-9.9-4.449-9.9-9.907V30.905h10.647c5.45 0 9.908 4.458 9.908 9.907v.009Z"/><path fill="#E43423" d="M230.699 121.978c-5.467 0-9.908-4.45-9.908-9.908V.54h10.89c5.466 0 9.908 4.44 9.908 9.898V121.97h-10.89v.008Z"/><path fill="#014F8F" d="M180.889 19.467c11.42 11.68 17.704 25.482 17.704 41.795 0 16.313-6.284 30.219-17.704 41.908-11.376 11.646-26.62 18.329-42.916 18.807H74.416v-10.272a9.765 9.765 0 0 1 2.886-6.988 9.82 9.82 0 0 1 6.996-2.903l53.284-.043c22.805-.713 40.726-17.66 40.726-40.509s-17.964-39.692-40.891-40.404l-23.092-.061c-2.651-.018-5.136-1.043-6.996-2.912a9.818 9.818 0 0 1-2.886-6.996l.035-10.342 33.347.095c16.418.487 31.697 7.17 43.073 18.817l-.009.008Z"/></svg>